<svg id="Layer_2" data-name="Layer 2" xmlns="http://www.w3.org/2000/svg" viewBox="0 0 1600 960"><defs><style>.cls-1{fill:#3b48cc;}.cls-2{fill:#fff;}</style></defs><title>CodeBuild</title><rect id="Blue_Light_BG" data-name="Blue Light BG" class="cls-1" x="475" y="155" width="650" height="650"/><g id="Product_Icon" data-name="Product Icon"><path class="cls-2" d="M846.93,573.21,859,560.8l-24.81-24.19L862,515.84,851.57,502l-35.86,26.85a8.67,8.67,0,0,0-.85,13.14Z"/><path class="cls-2" d="M943.46,543.71l-27.75,20.76,10.39,13.88L962,551.51a8.67,8.67,0,0,0,.86-13.15l-32.07-31.25-12.1,12.41Z"/><rect class="cls-2" x="831.71" y="536.33" width="113.62" height="17.33" transform="translate(31.84 1138.79) rotate(-66.25)"/><path class="cls-2" d="M1024.36,334.66l-24.29-20.13-38.44-31.87,0,0-10.21-8.46a8.66,8.66,0,0,0-5.53-2L624.5,272h0a8.67,8.67,0,0,0-8.67-8.67H581.17A8.67,8.67,0,0,0,572.5,272v86.67a8.66,8.66,0,0,0,8.67,8.66h34.66V688a8.67,8.67,0,0,0,8.67,8.67h95.33A8.67,8.67,0,0,0,728.5,688V350h156v63.56L787.44,454H780.5a8.67,8.67,0,0,0-8.67,8.67v156a8.66,8.66,0,0,0,8.67,8.66h225.33a8.66,8.66,0,0,0,8.67-8.66v-156a8.67,8.67,0,0,0-8.67-8.67H998.9l-97.07-40.44V350h117a8.66,8.66,0,0,0,5.53-15.34Zm-81.5-45-44.54,40.44-53.57-40.61,98,0Zm-223,43H650.27l42.81-32.46,42.8,32.46ZM637.57,510.33l73.6-65.24V575.57Zm69.2,84.5-73.6,65.24V529.59Zm-73.6-103.76V360.59l73.6,65.24Zm74.32-201.68,108.25.06-54.08,41Zm122.75,10.82L873,332.67H787.43ZM678.69,289.37,624.5,330.46V289.34ZM607.17,350H589.83V280.67h17.34V350Zm30.39,329.33,73.61-65.24v65.24Zm73.61-272.76L647.34,350h63.83ZM997.17,610h-208V471.33h208ZM832.5,454l60.67-25.28L953.84,454Zm88.76-121.33,35.08-31.86,38.45,31.86Z"/></g></svg>